PathFileType	4	(X/Y/Z)	markers_results_mono.trc
DataRate	CameraRate	NumFrames	NumMarkers	Units	OrigDataRate	OrigDataStartFrame	OrigNumFrames
12.500000	12.500000	13	22	m	12.500000	1885	3015
Frame#	Time	Nose			Neck			LShoulder			RShoulder			LElbow			RElbow			LWrist			RWrist			LHip			RHip			LKnee			RKnee			LAnkle			RAnkle			LEye			REye			LThumb			LIndex			LPinky			RThumb			RIndex			RPinky
		X1	Y1	Z1	X2	Y2	Z2	X3	Y3	Z3	X4	Y4	Z4	X5	Y5	Z5	X6	Y6	Z6	X7	Y7	Z7	X8	Y8	Z8	X9	Y9	Z9	X10	Y10	Z10	X11	Y11	Z11	X12	Y12	Z12	X13	Y13	Z13	X14	Y14	Z14	X15	Y15	Z15	X16	Y16	Z16	X17	Y17	Z17	X18	Y18	Z18	X19	Y19	Z19	X20	Y20	Z20	X21	Y21	Z21	X22	Y22	Z22

1885	150.720000	0.163025	-1.597881	-0.506845	0.227239	-1.584377	-0.221637	0.007411	-1.618252	-0.084881	0.447068	-1.550503	-0.358393	-0.378288	-1.301877	-0.041759	0.706520	-1.246287	-0.393615	-0.542286	-0.993809	-0.236654	0.338651	-1.024557	-0.448020	-0.160210	-0.968288	0.100116	0.201294	-0.940046	-0.093492	-0.483625	-0.474896	0.027214	0.267511	-0.491487	-0.180209	-0.488466	-0.003410	-0.000197	0.440025	0.053751	-0.105292	0.163025	-1.655014	-0.529698	0.163025	-1.662632	-0.503036	-0.542286	-0.872135	-0.419164	-0.542286	-0.853416	-0.461283	-0.542286	-0.844057	-0.409805	0.338651	-0.957935	-0.455423	0.338651	-0.957935	-0.473929	0.338651	-0.932027	-0.451722
1886	150.800000	0.165144	-1.597302	-0.509207	0.229479	-1.584862	-0.222135	0.008581	-1.618932	-0.086433	0.450376	-1.550791	-0.357837	-0.378627	-1.302199	-0.043241	0.710216	-1.246550	-0.390942	-0.542629	-0.993566	-0.238226	0.343207	-1.023384	-0.446983	-0.160655	-0.968361	0.099489	0.201871	-0.940118	-0.092534	-0.484579	-0.473205	0.026941	0.269472	-0.490629	-0.179314	-0.488633	-0.000646	-0.000142	0.441267	0.056461	-0.104703	0.165144	-1.654211	-0.524383	0.165144	-1.665593	-0.505413	-0.542629	-0.896913	-0.466677	-0.542629	-0.874947	-0.471070	-0.542629	-0.861767	-0.431531	0.343207	-0.964097	-0.469215	0.343207	-0.960391	-0.480332	0.343207	-0.934453	-0.458099
1887	150.880000	0.166569	-1.596889	-0.507797	0.229994	-1.584850	-0.221167	0.009217	-1.618623	-0.086164	0.450771	-1.551077	-0.356171	-0.377702	-1.302889	-0.043811	0.709674	-1.247852	-0.387696	-0.540612	-0.994445	-0.238135	0.344367	-1.023646	-0.443627	-0.160407	-0.969079	0.098655	0.201758	-0.940995	-0.091770	-0.483508	-0.475493	0.025814	0.270086	-0.492889	-0.178381	-0.488365	-0.003488	0.000085	0.439946	0.053582	-0.104409	0.166569	-1.655869	-0.522542	0.166569	-1.663241	-0.507797	-0.540612	-0.928743	-0.345332	-0.540612	-0.907995	-0.348791	-0.540612	-0.897621	-0.321127	0.344367	-0.965260	-0.461872	0.344367	-0.961611	-0.472820	0.344367	-0.936068	-0.454574
1888	150.960000	0.169607	-1.597336	-0.509720	0.232976	-1.586364	-0.221263	0.010911	-1.620301	-0.087014	0.455041	-1.552428	-0.355513	-0.378209	-1.304229	-0.044725	0.714436	-1.249223	-0.385927	-0.540704	-0.994780	-0.239569	0.349904	-1.023058	-0.443297	-0.161052	-0.969508	0.098115	0.202607	-0.941299	-0.090867	-0.485205	-0.474212	0.025544	0.272127	-0.492081	-0.177592	-0.489940	-0.000667	0.000292	0.441262	0.056519	-0.103825	0.169607	-1.659522	-0.524352	0.169607	-1.666838	-0.506062	-0.540704	-0.902936	-0.570210	-0.540704	-0.879975	-0.570210	-0.540704	-0.861606	-0.538063	0.349904	-0.964266	-0.464046	0.349904	-0.960808	-0.474421	0.349904	-0.940058	-0.460588
1889	151.040000	0.171270	-1.597457	-0.507115	0.233542	-1.586550	-0.219360	0.011681	-1.620103	-0.085484	0.455404	-1.552997	-0.353237	-0.377466	-1.305041	-0.044645	0.714435	-1.251286	-0.383482	-0.539019	-0.996208	-0.239291	0.351288	-1.024673	-0.440795	-0.160740	-0.970351	0.097349	0.202420	-0.942377	-0.090129	-0.484314	-0.476645	0.024231	0.272305	-0.494666	-0.176828	-0.489341	-0.003583	0.000388	0.440223	0.053342	-0.103565	0.171270	-1.652434	-0.525441	0.171270	-1.663430	-0.507115	-0.539019	-0.927259	-0.353057	-0.539019	-0.910021	-0.353057	-0.539019	-0.896232	-0.328924	0.351288	-0.965962	-0.464969	0.351288	-0.959055	-0.475330	0.351288	-0.938333	-0.454609
1890	151.120000	0.174615	-1.598954	-0.508483	0.236644	-1.588861	-0.218966	0.013281	-1.622608	-0.085581	0.460006	-1.555115	-0.352352	-0.378853	-1.307139	-0.045482	0.719986	-1.252926	-0.382581	-0.540262	-0.997105	-0.241064	0.357162	-1.024409	-0.441645	-0.161628	-0.970906	0.096749	0.203406	-0.942837	-0.089267	-0.486715	-0.475247	0.023443	0.274591	-0.493467	-0.176699	-0.492520	0.000386	0.000318	0.442140	0.057552	-0.103400	0.174615	-1.652921	-0.522874	0.174615	-1.663714	-0.508483	-0.540262	-0.905016	-0.581796	-0.540262	-0.881993	-0.577192	-0.540262	-0.863576	-0.554169	0.357162	-0.962339	-0.458886	0.357162	-0.958891	-0.472679	0.357162	-0.941649	-0.458886
1891	151.200000	0.176206	-1.599246	-0.504938	0.237208	-1.588826	-0.216344	0.013979	-1.622171	-0.083068	0.460436	-1.555481	-0.349620	-0.378594	-1.307627	-0.044901	0.719893	-1.254853	-0.381033	-0.539202	-0.998508	-0.240661	0.358199	-1.026507	-0.440392	-0.161412	-0.971696	0.095994	0.203255	-0.943903	-0.088595	-0.485863	-0.476878	0.021718	0.274770	-0.495631	-0.176296	-0.491610	-0.001737	-0.000393	0.441465	0.055000	-0.103695	0.176206	-1.654998	-0.515392	0.176206	-1.661967	-0.504938	-0.539202	-0.926378	-0.357441	-0.539202	-0.909205	-0.354006	-0.539202	-0.895466	-0.326529	0.358199	-0.961014	-0.457627	0.358199	-0.957567	-0.467968	0.358199	-0.940332	-0.450733
1892	151.280000	0.179993	-1.601166	-0.506088	0.240501	-1.591162	-0.215887	0.015738	-1.624664	-0.082943	0.465264	-1.557660	-0.348831	-0.380443	-1.309595	-0.045887	0.725505	-1.256172	-0.381377	-0.540959	-0.999056	-0.242609	0.364575	-1.026241	-0.442987	-0.162482	-0.972144	0.095249	0.204397	-0.944255	-0.087750	-0.488279	-0.475646	0.020076	0.277508	-0.494334	-0.176712	-0.495244	0.002692	-0.001403	0.443448	0.059705	-0.104654	0.179993	-1.652399	-0.516334	0.179993	-1.659230	-0.502672	-0.540959	-0.923684	-0.348815	-0.540959	-0.909980	-0.348815	-0.540959	-0.896276	-0.324832	0.364575	-0.958220	-0.468047	0.364575	-0.954639	-0.475207	0.364575	-0.936739	-0.453727
1893	151.360000	0.182172	-1.601640	-0.501149	0.241253	-1.590615	-0.212337	0.016772	-1.623532	-0.079546	0.465734	-1.557698	-0.345129	-0.379921	-1.309412	-0.044880	0.725670	-1.258422	-0.380347	-0.539563	-1.000431	-0.241972	0.365805	-1.029633	-0.443043	-0.162235	-0.972444	0.094205	0.204092	-0.945006	-0.086883	-0.486841	-0.477046	0.017627	0.277502	-0.496865	-0.176588	-0.492942	0.000492	-0.003300	0.442348	0.056525	-0.105736	0.182172	-1.647269	-0.510926	0.182172	-1.653788	-0.494630	-0.539563	-0.924397	-0.356023	-0.539563	-0.907117	-0.356023	-0.539563	-0.893293	-0.331830	0.365805	-0.969859	-0.467655	0.365805	-0.962827	-0.478203	0.365805	-0.941731	-0.457107
1894	151.440000	0.187166	-1.604262	-0.501094	0.245164	-1.593035	-0.211039	0.018888	-1.626012	-0.078700	0.471440	-1.560058	-0.343378	-0.381377	-1.311714	-0.045728	0.732177	-1.260351	-0.381242	-0.541192	-1.000933	-0.244051	0.373268	-1.030338	-0.447334	-0.163452	-0.972615	0.093027	0.205393	-0.945205	-0.085834	-0.488710	-0.475949	0.014848	0.280761	-0.495745	-0.177402	-0.496213	0.004808	-0.005190	0.444318	0.061105	-0.107617	0.187166	-1.652098	-0.514761	0.187166	-1.658932	-0.494260	-0.541192	-0.925994	-0.346240	-0.541192	-0.908963	-0.342834	-0.541192	-0.895337	-0.322396	0.373268	-0.968667	-0.472728	0.373268	-0.965039	-0.479984	0.373268	-0.939645	-0.458217
1895	151.520000	0.190472	-1.604903	-0.494492	0.246491	-1.591974	-0.206052	0.020389	-1.624237	-0.074123	0.472593	-1.559710	-0.337981	-0.380417	-1.311113	-0.043965	0.732714	-1.263088	-0.380244	-0.539325	-1.002265	-0.243304	0.375084	-1.035287	-0.448744	-0.163179	-0.972278	0.091712	0.205048	-0.945550	-0.084783	-0.487071	-0.476447	0.011862	0.281007	-0.498301	-0.177361	-0.493256	0.002673	-0.007992	0.443593	0.057557	-0.109248	0.190472	-1.656574	-0.508271	0.190472	-1.663464	-0.491047	-0.539325	-0.926243	-0.332548	-0.539325	-0.913021	-0.332548	-0.539325	-0.899800	-0.319327	0.375084	-0.969413	-0.470702	0.375084	-0.969413	-0.481681	0.375084	-0.943796	-0.459724
1896	151.600000	0.196969	-1.608125	-0.492694	0.251050	-1.594214	-0.203498	0.023110	-1.626293	-0.072241	0.478990	-1.562135	-0.334756	-0.381307	-1.313453	-0.044310	0.739245	-1.265980	-0.381116	-0.540886	-1.002900	-0.245258	0.382866	-1.037890	-0.454165	-0.164336	-0.971959	0.090259	0.206267	-0.945473	-0.083614	-0.488496	-0.475937	0.008441	0.283629	-0.497726	-0.178530	-0.497468	0.005951	-0.010324	0.444201	0.060788	-0.111896	0.196969	-1.666947	-0.506534	0.196969	-1.673867	-0.489234	-0.540886	-0.938235	-0.329323	-0.540886	-0.922068	-0.329323	-0.540886	-0.905901	-0.316390	0.382866	-0.979165	-0.479858	0.382866	-0.979165	-0.490869	0.382866	-0.949802	-0.468847
1897	151.680000	0.201107	-1.608392	-0.485013	0.253055	-1.592208	-0.197370	0.025215	-1.623396	-0.066823	0.480896	-1.561021	-0.327918	-0.379817	-1.311733	-0.041974	0.740586	-1.269334	-0.380127	-0.538863	-1.003960	-0.244587	0.385692	-1.044545	-0.457165	-0.163959	-0.970774	0.088677	0.205898	-0.945095	-0.082258	-0.486098	-0.475406	0.005275	0.284082	-0.500042	-0.178778	-0.493268	0.004030	-0.013882	0.443932	0.056806	-0.114231	0.201107	-1.666265	-0.495864	0.201107	-1.669882	-0.485013	-0.538863	-0.951474	-0.333156	-0.538863	-0.935073	-0.329876	-0.538863	-0.915391	-0.313474	0.385692	-1.001201	-0.511345	0.385692	-0.990365	-0.522180	0.385692	-0.961469	-0.482448
